<svg xmlns="http://www.w3.org/2000/svg" width="48" height="48" viewBox="0 0 48 48" fill="none">
  <defs>
    <linearGradient id="logoGrad" x1="0%" y1="0%" x2="100%" y2="100%">
      <stop offset="0%" stop-color="#06B6D4"/>
      <stop offset="100%" stop-color="#22D3EE"/>
    </linearGradient>
  </defs>
  <!-- Pulse wave lines -->
  <path d="M4 24C4 24 8 12 14 12C20 12 22 24 24 24C26 24 28 36 34 36C40 36 44 24 44 24" 
        stroke="url(#logoGrad)" stroke-width="3" stroke-linecap="round" stroke-linejoin="round" fill="none"/>
  <path d="M4 28C4 28 8 18 12 18C16 18 18 26 20 26" 
        stroke="url(#logoGrad)" stroke-width="2" stroke-linecap="round" stroke-linejoin="round" fill="none" opacity="0.6"/>
  <!-- Microphone silhouette -->
  <rect x="20" y="6" width="8" height="14" rx="4" fill="url(#logoGrad)" opacity="0.9"/>
  <path d="M16 22C16 26.4183 19.5817 30 24 30C28.4183 30 32 26.4183 32 22" 
        stroke="url(#logoGrad)" stroke-width="2.5" stroke-linecap="round" fill="none"/>
  <line x1="24" y1="30" x2="24" y2="36" stroke="url(#logoGrad)" stroke-width="2.5" stroke-linecap="round"/>
  <line x1="19" y1="36" x2="29" y2="36" stroke="url(#logoGrad)" stroke-width="2.5" stroke-linecap="round"/>
</svg>